<?xml version="1.0" encoding="UTF-8"?>
<svg version="1.1" xmlns="http://www.w3.org/2000/svg" width="500" height="500">
<path d="M0 0 C1.87301033 -0.03366417 1.87301033 -0.03366417 3.78385925 -0.06800842 C5.14015568 -0.08102849 6.4964651 -0.09275005 7.8527832 -0.10327148 C8.54180033 -0.11017439 9.23081745 -0.11707729 9.94071388 -0.12418938 C13.58970979 -0.15995829 17.2385526 -0.18352909 20.88769531 -0.19726562 C24.632683 -0.21377497 28.37576939 -0.27215565 32.12012005 -0.34040928 C35.02090031 -0.38546755 37.92123614 -0.39878004 40.8223362 -0.40388298 C42.20136023 -0.41171621 43.58037457 -0.43117533 44.95905113 -0.46310616 C53.46101549 -0.6469779 59.04166523 0.17528163 65.85359192 5.44276428 C68.78206702 8.42296677 69.68027719 10.40766583 69.84106445 14.58813477 C69.79981445 15.49563477 69.75856445 16.40313477 69.71606445 17.33813477 C70.37606445 17.33813477 71.03606445 17.33813477 71.71606445 17.33813477 C71.82468278 20.04755869 71.90365022 22.75257377 71.96606445 25.46313477 C71.99958008 26.22368164 72.0330957 26.98422852 72.06762695 27.76782227 C72.16253243 33.27233999 71.19350117 36.052947 67.71606445 40.33813477 C60.9032133 40.12185378 57.12656817 38.78754255 51.66137695 34.71313477 C49.6623348 33.15947749 49.6623348 33.15947749 46.71606445 32.33813477 C45.72606445 31.34813477 45.72606445 31.34813477 44.71606445 30.33813477 C42.11460076 28.76872716 39.47659636 27.27328032 36.83325195 25.77563477 C36.13458008 25.30125977 35.4359082 24.82688477 34.71606445 24.33813477 C34.71606445 23.67813477 34.71606445 23.01813477 34.71606445 22.33813477 C28.60607616 20.41359247 28.60607616 20.41359247 22.46606445 21.52563477 C21.55856445 22.12375977 20.65106445 22.72188477 19.71606445 23.33813477 C14.82717556 26.33813477 14.82717556 26.33813477 12.71606445 26.33813477 C12.22106445 27.82313477 12.22106445 27.82313477 11.71606445 29.33813477 C10.72606445 29.33813477 9.73606445 29.33813477 8.71606445 29.33813477 C8.71606445 29.99813477 8.71606445 30.65813477 8.71606445 31.33813477 C7.10668945 32.52172852 7.10668945 32.52172852 4.96606445 33.77563477 C4.23645508 34.2177832 3.5068457 34.65993164 2.75512695 35.11547852 C2.08223633 35.51895508 1.4093457 35.92243164 0.71606445 36.33813477 C-2.92252789 38.63619309 -4.03122292 40.20525378 -5.28393555 44.33813477 C-5.57464134 47.5916605 -5.56291033 50.82364231 -5.53393555 54.08813477 C-5.54166992 54.94407227 -5.5494043 55.80000977 -5.55737305 56.68188477 C-5.53969958 62.5141304 -4.72539338 67.68670485 -3.28393555 73.33813477 C3.41757827 74.38348645 9.88258995 74.38743888 16.65356445 74.21704102 C18.33458252 74.18162453 18.33458252 74.18162453 20.04956055 74.14549255 C23.60520627 74.06933338 27.16060744 73.98510515 30.71606445 73.90063477 C33.13662567 73.84736623 35.55719859 73.79462621 37.9777832 73.74243164 C43.89069269 73.61378336 49.80342265 73.47852166 55.71606445 73.33813477 C55.70446289 72.71165039 55.69286133 72.08516602 55.6809082 71.43969727 C55.67188477 70.62243164 55.66286133 69.80516602 55.65356445 68.96313477 C55.64196289 68.15102539 55.63036133 67.33891602 55.6184082 66.50219727 C55.71606445 64.33813477 55.71606445 64.33813477 56.71606445 62.33813477 C55.06606445 62.33813477 53.41606445 62.33813477 51.71606445 62.33813477 C51.71606445 61.67813477 51.71606445 61.01813477 51.71606445 60.33813477 C43.13606445 60.66813477 34.55606445 60.99813477 25.71606445 61.33813477 C23.3064259 54.1092191 23.3064259 54.1092191 24.71606445 49.33813477 C29.71289563 46.00691398 35.47190067 47.01073841 41.34106445 47.02563477 C42.58758789 47.00952148 43.83411133 46.9934082 45.1184082 46.97680664 C59.32181214 46.96930748 59.32181214 46.96930748 64.71606445 50.33813477 C65.94897461 52.44628906 65.94897461 52.44628906 66.71606445 54.33813477 C67.37606445 54.33813477 68.03606445 54.33813477 68.71606445 54.33813477 C72.34910956 63.29964603 73.37024046 73.08212549 69.71606445 82.33813477 C67.21606445 85.40063477 67.21606445 85.40063477 64.71606445 87.33813477 C64.05606445 87.33813477 63.39606445 87.33813477 62.71606445 87.33813477 C62.71606445 87.99813477 62.71606445 88.65813477 62.71606445 89.33813477 C61.39606445 89.33813477 60.07606445 89.33813477 58.71606445 89.33813477 C58.71606445 89.99813477 58.71606445 90.65813477 58.71606445 91.33813477 C36.93606445 91.33813477 15.15606445 91.33813477 -7.28393555 91.33813477 C-7.28393555 90.67813477 -7.28393555 90.01813477 -7.28393555 89.33813477 C-8.60393555 89.33813477 -9.92393555 89.33813477 -11.28393555 89.33813477 C-13.84643555 87.08813477 -13.84643555 87.08813477 -16.28393555 84.33813477 C-17.15018555 83.47188477 -17.15018555 83.47188477 -18.03393555 82.58813477 C-21.72193727 75.94973167 -20.45988831 65.84971192 -20.48706055 58.45532227 C-20.49276062 57.24167999 -20.49846069 56.02803772 -20.5043335 54.77761841 C-20.51373718 52.22439433 -20.52029893 49.67115838 -20.52416992 47.11791992 C-20.53392224 43.21845543 -20.56500904 39.31950817 -20.59643555 35.42016602 C-20.6029622 32.93188787 -20.608214 30.44360599 -20.61206055 27.95532227 C-20.62440735 26.79475311 -20.63675415 25.63418396 -20.6494751 24.43844604 C-20.63255178 18.28295949 -20.25106407 13.77591189 -17.28393555 8.33813477 C-16.62393555 8.33813477 -15.96393555 8.33813477 -15.28393555 8.33813477 C-14.95393555 7.34813477 -14.62393555 6.35813477 -14.28393555 5.33813477 C-13.62393555 5.33813477 -12.96393555 5.33813477 -12.28393555 5.33813477 C-11.95393555 4.34813477 -11.62393555 3.35813477 -11.28393555 2.33813477 C-7.52996075 0.32015914 -4.2139832 0.06412082 0 0 Z " fill="#83983B" transform="translate(63.283935546875,192.661865234375)"/>
<path d="M0 0 C0.99773437 0.02320313 1.99546875 0.04640625 3.0234375 0.0703125 C4.52777344 0.09738281 4.52777344 0.09738281 6.0625 0.125 C6.83335937 0.14820313 7.60421875 0.17140625 8.3984375 0.1953125 C9.32475289 4.19862244 9.60429815 8.03750803 9.75 12.140625 C9.77315277 12.79231659 9.79630554 13.44400818 9.82015991 14.115448 C9.86754769 15.48526053 9.91281011 16.85514807 9.95605469 18.22509766 C10.02345803 20.32095098 10.10118734 22.41625511 10.1796875 24.51171875 C10.2245823 25.84633332 10.26887404 27.18096835 10.3125 28.515625 C10.3532666 29.72492676 10.3940332 30.93422852 10.43603516 32.18017578 C10.3984375 35.1953125 10.3984375 35.1953125 9.3984375 38.1953125 C10.0584375 38.1953125 10.7184375 38.1953125 11.3984375 38.1953125 C11.7078125 38.9790625 12.0171875 39.7628125 12.3359375 40.5703125 C13.32718788 43.11861378 13.32718788 43.11861378 14.3984375 45.1953125 C16.37732711 45.92225154 18.37798308 46.59347501 20.3984375 47.1953125 C20.3984375 47.8553125 20.3984375 48.5153125 20.3984375 49.1953125 C24.0284375 49.1953125 27.6584375 49.1953125 31.3984375 49.1953125 C31.3984375 48.5353125 31.3984375 47.8753125 31.3984375 47.1953125 C31.9759375 47.1334375 32.5534375 47.0715625 33.1484375 47.0078125 C36.8409676 45.67439885 38.40162537 42.69535681 40.5078125 39.52587891 C41.80821182 36.12302476 41.60400761 32.80465774 41.5234375 29.21875 C41.51586426 28.45229156 41.50829102 27.68583313 41.50048828 26.89614868 C41.47610291 24.45397227 41.43883228 22.01227342 41.3984375 19.5703125 C41.34538012 16.34897158 41.30534935 13.12786185 41.2734375 9.90625 C41.25684082 9.16353851 41.24024414 8.42082703 41.22314453 7.65560913 C41.2056505 5.83465662 41.29327495 4.01331001 41.3984375 2.1953125 C43.3984375 0.1953125 43.3984375 0.1953125 46 0 C46.99773437 0.02320313 47.99546875 0.04640625 49.0234375 0.0703125 C50.52777344 0.09738281 50.52777344 0.09738281 52.0625 0.125 C52.83335937 0.14820313 53.60421875 0.17140625 54.3984375 0.1953125 C54.3984375 1.5153125 54.3984375 2.8353125 54.3984375 4.1953125 C55.0584375 4.5253125 55.7184375 4.8553125 56.3984375 5.1953125 C56.42379639 12.7941822 56.44130816 20.39304099 56.45336914 27.99194336 C56.45839731 30.57690845 56.46522069 33.16187069 56.47387695 35.74682617 C56.48600879 39.462735 56.491681 43.17860622 56.49609375 46.89453125 C56.50125504 48.04990891 56.50641632 49.20528656 56.51173401 50.39567566 C56.51180954 51.47641861 56.51188507 52.55716156 56.51196289 53.6706543 C56.5141835 54.61885544 56.51640411 55.56705658 56.51869202 56.54399109 C56.30754925 61.19917864 55.07570675 65.53386259 53.8359375 70.0078125 C53.56652344 70.98363281 53.29710937 71.95945312 53.01953125 72.96484375 C52.81457031 73.70089844 52.60960937 74.43695313 52.3984375 75.1953125 C51.7384375 75.1953125 51.0784375 75.1953125 50.3984375 75.1953125 C50.3984375 75.8553125 50.3984375 76.5153125 50.3984375 77.1953125 C49.7384375 77.1953125 49.0784375 77.1953125 48.3984375 77.1953125 C48.31078125 77.81148438 48.223125 78.42765625 48.1328125 79.0625 C47.3984375 81.1953125 47.3984375 81.1953125 45.7265625 82.390625 C45.04078125 82.69742188 44.355 83.00421875 43.6484375 83.3203125 C42.91882813 83.64902344 42.18921875 83.97773438 41.4375 84.31640625 C40.42816406 84.75146484 40.42816406 84.75146484 39.3984375 85.1953125 C38.6146875 85.5871875 37.8309375 85.9790625 37.0234375 86.3828125 C30.16001568 88.50720497 23.4134794 88.36448615 16.3984375 87.1953125 C16.3984375 86.5353125 16.3984375 85.8753125 16.3984375 85.1953125 C14.9134375 85.6903125 14.9134375 85.6903125 13.3984375 86.1953125 C11.03321192 85.27327541 8.69441943 84.27832285 6.3984375 83.1953125 C6.3984375 82.5353125 6.3984375 81.8753125 6.3984375 81.1953125 C5.80546875 80.95425781 5.2125 80.71320313 4.6015625 80.46484375 C1.96321286 78.94451816 0.82928289 77.40832514 -0.8515625 74.8828125 C-1.37234375 74.12355469 -1.893125 73.36429687 -2.4296875 72.58203125 C-3.74602257 69.9010955 -3.83112324 68.14308103 -3.6015625 65.1953125 C0.20164542 63.29370854 4.29012206 63.31187023 8.3984375 64.1953125 C10.55890133 66.04413048 12.10139887 68.00737192 13.80078125 70.28125 C15.98137543 72.89369779 18.10253889 73.58212206 21.3984375 74.1953125 C22.0584375 74.1953125 22.7184375 74.1953125 23.3984375 74.1953125 C23.3984375 74.8553125 23.3984375 75.5153125 23.3984375 76.1953125 C23.9553125 75.8653125 24.5121875 75.5353125 25.0859375 75.1953125 C27.3984375 74.1953125 27.3984375 74.1953125 29.8359375 74.3203125 C33.35693988 74.14855629 34.79088463 72.45049336 37.3984375 70.1953125 C38.0584375 70.1953125 38.7184375 70.1953125 39.3984375 70.1953125 C40.9867647 66.0259536 41.70286409 62.66023589 41.3984375 58.1953125 C41.0684375 57.5353125 40.7384375 56.8753125 40.3984375 56.1953125 C39.3878125 56.8140625 38.3771875 57.4328125 37.3359375 58.0703125 C30.14332446 62.15966104 23.42078855 63.08292451 15.3984375 61.1953125 C15.3984375 60.5353125 15.3984375 59.8753125 15.3984375 59.1953125 C13.9134375 59.6903125 13.9134375 59.6903125 12.3984375 60.1953125 C12.3984375 59.5353125 12.3984375 58.8753125 12.3984375 58.1953125 C10.9134375 58.6903125 10.9134375 58.6903125 9.3984375 59.1953125 C9.3984375 58.5353125 9.3984375 57.8753125 9.3984375 57.1953125 C8.50125 56.7621875 8.50125 56.7621875 7.5859375 56.3203125 C5.3984375 55.1953125 5.3984375 55.1953125 2.3984375 53.1953125 C2.3984375 52.5353125 2.3984375 51.8753125 2.3984375 51.1953125 C1.7384375 51.1953125 1.0784375 51.1953125 0.3984375 51.1953125 C-1.36618933 48.10721555 -1.6015625 46.96219114 -1.6015625 43.1953125 C-2.2615625 43.1953125 -2.9215625 43.1953125 -3.6015625 43.1953125 C-3.2715625 40.8853125 -2.9415625 38.5753125 -2.6015625 36.1953125 C-3.2615625 36.1953125 -3.9215625 36.1953125 -4.6015625 36.1953125 C-4.65093133 31.38982653 -4.68726693 26.58448756 -4.71142578 21.77880859 C-4.72149504 20.14336578 -4.73515131 18.50794101 -4.75244141 16.87255859 C-4.77664955 14.5243688 -4.78803607 12.17641662 -4.796875 9.828125 C-4.81235886 8.72804611 -4.81235886 8.72804611 -4.82815552 7.60574341 C-4.82855618 5.80068553 -4.72369005 3.9962342 -4.6015625 2.1953125 C-2.6015625 0.1953125 -2.6015625 0.1953125 0 0 Z " fill="#000000" transform="translate(401.6015625,220.8046875)"/>
<path d="M0 0 C1.23556641 0.01740234 1.23556641 0.01740234 2.49609375 0.03515625 C3.32238281 0.04417969 4.14867187 0.05320313 5 0.0625 C5.63808594 0.07410156 6.27617187 0.08570313 6.93359375 0.09765625 C6.93359375 0.75765625 6.93359375 1.41765625 6.93359375 2.09765625 C7.65417969 1.88882813 8.37476563 1.68 9.1171875 1.46484375 C14.05576115 0.82097978 17.85776043 3.5064435 21.93359375 6.09765625 C25.93359375 10.19289435 25.93359375 10.19289435 25.93359375 13.09765625 C26.59359375 13.42765625 27.25359375 13.75765625 27.93359375 14.09765625 C28.85546875 16.05859375 28.85546875 16.05859375 29.68359375 18.47265625 C29.9671875 19.26414063 30.25078125 20.055625 30.54296875 20.87109375 C30.93359375 23.09765625 30.93359375 23.09765625 28.93359375 26.09765625 C26.4375 26.49609375 26.4375 26.49609375 23.49609375 26.47265625 C22.04396484 26.48425781 22.04396484 26.48425781 20.5625 26.49609375 C17.93359375 26.09765625 17.93359375 26.09765625 16.109375 24.6953125 C14.93359375 23.09765625 14.93359375 23.09765625 14.55859375 21.16015625 C13.51103972 17.70322794 12.0982351 16.8351064 8.93359375 15.09765625 C2.33782942 14.26748398 -2.45990519 14.37577295 -8.06640625 18.09765625 C-9.05640625 18.42765625 -10.04640625 18.75765625 -11.06640625 19.09765625 C-11.06640625 22.72765625 -11.06640625 26.35765625 -11.06640625 30.09765625 C-5.10251118 32.18028627 0.75115939 33.82700048 6.93359375 35.09765625 C12.05031424 36.17530717 16.99991433 37.32659184 21.93359375 39.09765625 C21.93359375 39.75765625 21.93359375 40.41765625 21.93359375 41.09765625 C22.84044922 41.23107422 22.84044922 41.23107422 23.765625 41.3671875 C27.20029998 42.52445637 28.14248185 44.95859643 29.89453125 47.984375 C31.25135074 50.7439214 31.74175213 53.02819033 31.93359375 56.09765625 C32.05734375 57.33515625 32.18109375 58.57265625 32.30859375 59.84765625 C32.21629874 65.85836906 29.3147531 71.37546129 25.40625 75.84375 C22.36618741 78.57439146 21.11724559 79.09765625 16.93359375 79.09765625 C16.60359375 79.75765625 16.27359375 80.41765625 15.93359375 81.09765625 C11.28616188 83.1096542 6.92610283 83.40396274 1.93359375 83.34765625 C0.90492188 83.35925781 0.90492188 83.35925781 -0.14453125 83.37109375 C-4.4917146 83.35450145 -8.02754618 82.6879574 -12.06640625 81.09765625 C-12.06640625 80.43765625 -12.06640625 79.77765625 -12.06640625 79.09765625 C-12.78828125 79.03578125 -13.51015625 78.97390625 -14.25390625 78.91015625 C-18.99846203 77.5395068 -21.40310161 74.09261321 -24.06640625 70.09765625 C-24.06640625 69.10765625 -24.06640625 68.11765625 -24.06640625 67.09765625 C-24.72640625 66.76765625 -25.38640625 66.43765625 -26.06640625 66.09765625 C-27.04248842 63.16940973 -27.14867293 61.14152349 -27.06640625 58.09765625 C-24.42182246 56.77536436 -22.38879324 57.00088431 -19.44140625 57.03515625 C-17.93707031 57.04869141 -17.93707031 57.04869141 -16.40234375 57.0625 C-15.63148438 57.07410156 -14.860625 57.08570313 -14.06640625 57.09765625 C-11.06640625 63.84765625 -11.06640625 63.84765625 -11.06640625 66.09765625 C-10.23109375 66.28328125 -10.23109375 66.28328125 -9.37890625 66.47265625 C-7.06640625 67.09765625 -7.06640625 67.09765625 -4.94140625 68.09765625 C-0.73854483 69.55952109 3.51523754 69.77164162 7.93359375 70.09765625 C7.93359375 69.43765625 7.93359375 68.77765625 7.93359375 68.09765625 C8.67609375 67.85015625 9.41859375 67.60265625 10.18359375 67.34765625 C13.29426528 65.93371465 14.91542804 64.86329075 16.93359375 62.09765625 C17.26777304 58.43013495 17.26777304 58.43013495 16.93359375 55.09765625 C12.50580531 52.35242742 9.21496804 50.61291228 3.93359375 50.09765625 C3.93359375 49.43765625 3.93359375 48.77765625 3.93359375 48.09765625 C3.093125 48.31164062 2.25265625 48.525625 1.38671875 48.74609375 C-2.83549057 49.17595669 -5.37366655 48.24103047 -9.31640625 46.72265625 C-10.5384375 46.26117188 -11.76046875 45.7996875 -13.01953125 45.32421875 C-16.06640625 44.09765625 -16.06640625 44.09765625 -18.06640625 43.09765625 C-18.06640625 42.43765625 -18.06640625 41.77765625 -18.06640625 41.09765625 C-18.72640625 41.09765625 -19.38640625 41.09765625 -20.06640625 41.09765625 C-20.06640625 40.43765625 -20.06640625 39.77765625 -20.06640625 39.09765625 C-20.72640625 39.09765625 -21.38640625 39.09765625 -22.06640625 39.09765625 C-25.92521561 32.34473987 -25.35147591 25.71007201 -25.06640625 18.09765625 C-24.40640625 18.09765625 -23.74640625 18.09765625 -23.06640625 18.09765625 C-23.39640625 17.10765625 -23.72640625 16.11765625 -24.06640625 15.09765625 C-22.75390625 12.41015625 -22.75390625 12.41015625 -21.06640625 10.09765625 C-20.40640625 10.09765625 -19.74640625 10.09765625 -19.06640625 10.09765625 C-18.73640625 9.10765625 -18.40640625 8.11765625 -18.06640625 7.09765625 C-15.95703125 5.4921875 -15.95703125 5.4921875 -13.31640625 3.91015625 C-12.02476562 3.11544922 -12.02476562 3.11544922 -10.70703125 2.3046875 C-7.8878174 1.01602318 -6.11886331 0.94289881 -3.06640625 1.09765625 C-2.06640625 0.09765625 -2.06640625 0.09765625 0 0 Z " fill="#000000" transform="translate(232.06640625,199.90234375)"/>
<path d="M0 0 C0.82242188 0.01353516 1.64484375 0.02707031 2.4921875 0.04101562 C4.49508221 0.07594984 6.49763356 0.12973943 8.5 0.1875 C8.5 0.8475 8.5 1.5075 8.5 2.1875 C9.49 1.8575 10.48 1.5275 11.5 1.1875 C13.6875 2.125 13.6875 2.125 15.5 3.1875 C15.5 3.8475 15.5 4.5075 15.5 5.1875 C16.056875 5.27 16.61375 5.3525 17.1875 5.4375 C21.46840948 6.82590308 24.04684877 9.50777316 26.5 13.1875 C26.5 14.1775 26.5 15.1675 26.5 16.1875 C27.16 16.5175 27.82 16.8475 28.5 17.1875 C32.56937812 25.76122539 31.62404276 34.52719841 31.1875 43.75 C31.12412786 45.34694549 31.06226595 46.94395166 31.00195312 48.54101562 C30.85205078 52.42409612 30.681692 56.3057824 30.5 60.1875 C26.13496852 61.37469263 22.96726786 60.85759018 18.5 60.1875 C18.5 58.5375 18.5 56.8875 18.5 55.1875 C17.84 55.1875 17.18 55.1875 16.5 55.1875 C16.5 55.8475 16.5 56.5075 16.5 57.1875 C13.5 59.1875 13.5 59.1875 10.5 59.1875 C10.005 60.1775 10.005 60.1775 9.5 61.1875 C8.5 62.1875 8.5 62.1875 6.65234375 62.28515625 C4.6015625 62.25260417 2.55078125 62.22005208 0.5 62.1875 C0.5 62.8475 0.5 63.5075 0.5 64.1875 C-4.21334503 64.41741927 -8.04569773 63.75960668 -12.5 62.1875 C-12.83 61.5275 -13.16 60.8675 -13.5 60.1875 C-14.428125 60.043125 -15.35625 59.89875 -16.3125 59.75 C-19.61872927 59.16654778 -21.10678442 58.48866883 -23.5 56.1875 C-23.5 55.5275 -23.5 54.8675 -23.5 54.1875 C-24.16 54.1875 -24.82 54.1875 -25.5 54.1875 C-26.71875 52.6484375 -26.71875 52.6484375 -28 50.5625 C-28.63421875 49.55316406 -28.63421875 49.55316406 -29.28125 48.5234375 C-32.32021798 42.69874887 -32.76659949 37.7389384 -32.625 31.3125 C-32.61597656 30.52875 -32.60695313 29.745 -32.59765625 28.9375 C-32.57428063 27.02069945 -32.53841653 25.10405809 -32.5 23.1875 C-31.84 23.1875 -31.18 23.1875 -30.5 23.1875 C-30.83 22.1975 -31.16 21.2075 -31.5 20.1875 C-28.06101242 11.95695232 -22.09482577 5.01011661 -13.8359375 1.5078125 C-9.19980604 -0.13933339 -4.87185287 -0.15472497 0 0 Z M-10.5 14.1875 C-10.5 14.8475 -10.5 15.5075 -10.5 16.1875 C-11.2425 16.3525 -11.985 16.5175 -12.75 16.6875 C-16.82380173 18.90957367 -18.1502421 21.82618551 -19.5 26.1875 C-20.38313373 32.47737468 -19.67664493 37.6009865 -16.5 43.1875 C-13.84963455 46.24561398 -11.38362711 48.84831824 -7.5 50.1875 C-6.51 49.6925 -6.51 49.6925 -5.5 49.1875 C-5.5 49.8475 -5.5 50.5075 -5.5 51.1875 C2.53147311 51.73030907 2.53147311 51.73030907 9.5 48.1875 C10.53125 47.445 11.5625 46.7025 12.625 45.9375 C16.51280661 42.21872846 18.31830841 38.94921216 18.67578125 33.515625 C18.68616852 31.06422925 18.63295972 28.63494372 18.5 26.1875 C17.84 26.1875 17.18 26.1875 16.5 26.1875 C16.4175 25.28 16.335 24.3725 16.25 23.4375 C15.39232474 19.7209072 14.4858613 18.49087872 11.5 16.1875 C9.3618034 15.4002322 9.3618034 15.4002322 7.5 15.1875 C7.5 14.5275 7.5 13.8675 7.5 13.1875 C0.95688671 12.31192969 -4.26647981 11.8326146 -10.5 14.1875 Z " fill="#000000" transform="translate(357.5,219.8125)"/>
<path d="M0 0 C0 0.66 0 1.32 0 2 C0.721875 2.226875 1.44375 2.45375 2.1875 2.6875 C5.56218281 4.26235198 7.48030013 6.28137646 10 9 C10.556875 9.53625 11.11375 10.0725 11.6875 10.625 C15.40158372 14.51594485 15.69965259 18.52398031 16.25 23.625 C16.33862305 24.43735107 16.42724609 25.24970215 16.51855469 26.08666992 C17.06878651 31.87048859 16.88407828 36.44196908 15 42 C14.67 42.99 14.34 43.98 14 45 C13 47 13 47 11 48 C10.54625 48.78375 10.0925 49.5675 9.625 50.375 C7.96827275 53.05125172 6.6869955 54.40459642 4 56 C3.01 56 2.02 56 1 56 C1 56.66 1 57.32 1 58 C-7.92475971 62.28388466 -17.41115124 61.80701709 -27 60 C-27 59.34 -27 58.68 -27 58 C-28.36125 57.8453125 -28.36125 57.8453125 -29.75 57.6875 C-33.03071844 56.99350187 -34.60889095 56.29914332 -37 54 C-37 53.34 -37 52.68 -37 52 C-37.86625 51.7215625 -37.86625 51.7215625 -38.75 51.4375 C-43.09936457 48.6587393 -44.89491847 43.8904065 -46 39 C-47.51986409 27.74174746 -48.22942983 18.53299565 -41 9 C-34.01586335 1.14743304 -34.01586335 1.14743304 -29.22265625 0.796875 C-28.48917969 0.86390625 -27.75570312 0.9309375 -27 1 C-26.67 0.34 -26.34 -0.32 -26 -1 C-17.23790069 -4.08296087 -8.68268615 -2.89422872 0 0 Z M-21 10 C-21 10.66 -21 11.32 -21 12 C-22.32 12 -23.64 12 -25 12 C-25 12.66 -25 13.32 -25 14 C-26.65 14.66 -28.3 15.32 -30 16 C-30 16.99 -30 17.98 -30 19 C-30.99 19.495 -30.99 19.495 -32 20 C-32.6422386 21.72349255 -32.6422386 21.72349255 -33 24 C-33.2475 25.03125 -33.495 26.0625 -33.75 27.125 C-34.0792176 32.22787286 -33.12460133 36.35495906 -31 41 C-28.64419562 43.65837252 -28.64419562 43.65837252 -26 45 C-25.34 45 -24.68 45 -24 45 C-24 45.66 -24 46.32 -24 47 C-18.08580422 48.97139859 -11.34586371 48.83780847 -5.5 46.75 C-0.60778311 43.32544818 2.39821804 39.85399449 4 34 C4.83185551 28.4275703 4.15857418 23.79554709 1.4140625 18.859375 C-1.54814548 14.964317 -5.65047408 12.17476296 -10 10 C-11.87379605 9.92966231 -13.75001102 9.9156978 -15.625 9.9375 C-17.12933594 9.95103516 -17.12933594 9.95103516 -18.6640625 9.96484375 C-19.43492187 9.97644531 -20.20578125 9.98804688 -21 10 Z " fill="#7A8F34" transform="translate(185,224)"/>
<path d="M0 0 C4.62 0 9.24 0 14 0 C14 6.27 14 12.54 14 19 C16.15402344 18.98839844 18.30804688 18.97679687 20.52734375 18.96484375 C22.60571139 18.95705263 24.68407743 18.95097619 26.76245117 18.94506836 C28.21070073 18.94002899 29.65894517 18.93319747 31.10717773 18.92456055 C33.18474588 18.91247753 35.26224697 18.90676789 37.33984375 18.90234375 C38.59144287 18.89710693 39.84304199 18.89187012 41.13256836 18.88647461 C44 19 44 19 45 20 C45.09873816 21.99799572 45.12971799 23.99957158 45.125 26 C45.12886719 27.6396875 45.12886719 27.6396875 45.1328125 29.3125 C45 32 45 32 44 33 C41.78144736 33.08783542 39.56011504 33.10694609 37.33984375 33.09765625 C36.34314415 33.09553383 36.34314415 33.09553383 35.3263092 33.09336853 C33.19666101 33.08775518 31.06711661 33.07520054 28.9375 33.0625 C27.49674631 33.05748671 26.05599097 33.05292351 24.61523438 33.04882812 C21.07678898 33.03778145 17.53840461 33.02050792 14 33 C14.04429041 37.03920904 14.11426321 41.07709542 14.20751953 45.11547852 C14.23565375 46.48774907 14.25690586 47.86017941 14.27099609 49.23266602 C14.29252731 51.21138494 14.3412928 53.1897477 14.390625 55.16796875 C14.41157227 56.35672607 14.43251953 57.5454834 14.45410156 58.77026367 C15.10050292 62.59461231 16.28539405 64.2754047 19 67 C21.54975956 68.01244982 21.54975956 68.01244982 24.25 68.3125 C25.14203125 68.45300781 26.0340625 68.59351563 26.953125 68.73828125 C27.96632813 68.86783203 27.96632813 68.86783203 29 69 C29.33 68.34 29.66 67.68 30 67 C31.485 66.01 31.485 66.01 33 65 C34.99767079 61.95092353 35.20016822 59.60302803 35 56 C38.92074329 53.38617114 42.44511017 53.70613614 47 54 C49 56 49 56 49.01171875 58.49609375 C48.90472656 59.46675781 48.79773438 60.43742187 48.6875 61.4375 C48.58824219 62.40558594 48.48898437 63.37367188 48.38671875 64.37109375 C48 67 48 67 47 70 C46.34 70 45.68 70 45 70 C44.566875 71.175625 44.566875 71.175625 44.125 72.375 C43 75 43 75 41 77 C40.01 77 39.02 77 38 77 C37.67 77.66 37.34 78.32 37 79 C28.66353948 82.07203983 21.12885579 83.011316 12.8125 79.75 C7.30249913 76.32155502 3.12853024 73.17026889 1.37405396 66.68693542 C-0.0477782 59.16133193 -0.26042863 51.8831373 -0.1953125 44.23828125 C-0.1924826 42.96647507 -0.18965271 41.69466888 -0.18673706 40.38432312 C-0.17750983 37.04212494 -0.15961726 33.70021287 -0.1373291 30.35809326 C-0.1166802 26.93211303 -0.1076951 23.50610296 -0.09765625 20.08007812 C-0.07571822 13.38663125 -0.04125236 6.69335457 0 0 Z " fill="#000000" transform="translate(271,202)"/>
<path d="M0 0 C0 0.99 0 1.98 0 3 C-1.27875 3.0825 -2.5575 3.165 -3.875 3.25 C-6.05953918 3.47777834 -6.05953918 3.47777834 -8 4 C-9.42481768 5.76622169 -9.42481768 5.76622169 -10 8 C-10.515625 8.639375 -11.03125 9.27875 -11.5625 9.9375 C-14.30581634 13.87356258 -14.13112643 18.36001825 -14.17358398 23.02783203 C-14.18707382 24.21901642 -14.20056366 25.41020081 -14.21446228 26.63748169 C-14.22490067 27.91469086 -14.23533905 29.19190002 -14.24609375 30.5078125 C-14.27059387 32.52060665 -14.2951052 34.53340075 -14.32029057 36.54618645 C-14.38098596 41.50189806 -14.431897 46.45769621 -14.47680664 51.41357422 C-14.5024306 54.1994601 -14.53322677 56.98519936 -14.56959534 59.77096558 C-14.60347755 62.39402091 -14.62936424 65.01719379 -14.64659119 67.64041138 C-14.66323318 68.82529144 -14.67987518 70.01017151 -14.69702148 71.23095703 C-14.70732895 72.27510773 -14.71763641 73.31925842 -14.72825623 74.39505005 C-15 77 -15 77 -17 80 C-17.96503518 72.68294465 -18.17602056 65.49312841 -18.203125 58.1171875 C-18.20882507 56.90354523 -18.21452515 55.68990295 -18.22039795 54.43948364 C-18.22980164 51.88625957 -18.23636339 49.33302361 -18.24023438 46.77978516 C-18.24998669 42.88032066 -18.28107349 38.9813734 -18.3125 35.08203125 C-18.31902666 32.59375311 -18.32427845 30.10547123 -18.328125 27.6171875 C-18.3404718 26.45661835 -18.3528186 25.29604919 -18.36553955 24.10031128 C-18.34861624 17.94482472 -17.96712852 13.43777713 -15 8 C-14.34 8 -13.68 8 -13 8 C-12.67 7.01 -12.34 6.02 -12 5 C-11.34 5 -10.68 5 -10 5 C-9.67 4.01 -9.34 3.02 -9 2 C-5.67908998 0.29466783 -3.81507216 0 0 0 Z " fill="#7B921F" transform="translate(61,193)"/>
<path d="M0 0 C0.66 0 1.32 0 2 0 C5.63304511 8.96151126 6.65417601 18.74399072 3 28 C0.5 31.0625 0.5 31.0625 -2 33 C-2.66 33 -3.32 33 -4 33 C-4 33.66 -4 34.32 -4 35 C-5.32 35 -6.64 35 -8 35 C-8 35.66 -8 36.32 -8 37 C-8.66 36.67 -9.32 36.34 -10 36 C-9 33 -9 33 -6.125 31.375 C-3 30 -3 30 0 29 C2.16693628 19.52395325 0.95116607 9.57960112 0 0 Z " fill="#4F6814" transform="translate(130,247)"/>
<path d="M0 0 C1.19923096 0.02618408 2.39846191 0.05236816 3.6340332 0.0793457 C4.93276367 0.09545898 6.23149414 0.11157227 7.56958008 0.12817383 C8.94134144 0.16995087 10.31308623 0.21227561 11.68481445 0.25512695 C13.06823827 0.2802095 14.45170523 0.30302278 15.83520508 0.32348633 C19.22366209 0.38251868 22.6099483 0.46482613 25.99731445 0.56762695 C25.99731445 0.89762695 25.99731445 1.22762695 25.99731445 1.56762695 C20.05731445 2.06262695 20.05731445 2.06262695 13.99731445 2.56762695 C13.99731445 2.89762695 13.99731445 3.22762695 13.99731445 3.56762695 C13.00989258 3.60500977 12.0224707 3.64239258 11.00512695 3.6809082 C9.08313477 3.77952148 9.08313477 3.77952148 7.12231445 3.88012695 C5.84614258 3.93813477 4.5699707 3.99614258 3.25512695 4.0559082 C2.18004883 4.22477539 1.1049707 4.39364258 -0.00268555 4.56762695 C-2.29282208 8.00283175 -2.18111528 9.55295795 -2.00268555 13.56762695 C-2.99268555 13.56762695 -3.98268555 13.56762695 -5.00268555 13.56762695 C-6.34251502 6.38126885 -6.34251502 6.38126885 -4.9128418 2.95825195 C-3.00268555 0.56762695 -3.00268555 0.56762695 0 0 Z " fill="#57681A" transform="translate(93.002685546875,239.432373046875)"/>
<path d="M0 0 C1.61783713 0.00503291 3.23567581 0.0095926 4.85351562 0.01367188 C8.75654967 0.02451754 12.65950695 0.04167977 16.5625 0.0625 C12.63617626 3.98882374 5.74147411 3.05545878 0.44067383 3.06719971 C-5.10471371 3.00830608 -10.64545931 2.81775231 -16.1875 2.625 C-17.8671677 2.5716386 -19.54685529 2.51889981 -21.2265625 2.46679688 C-25.29713968 2.33919716 -29.36735589 2.20321288 -33.4375 2.0625 C-33.4375 1.7325 -33.4375 1.4025 -33.4375 1.0625 C-22.27007535 0.14404792 -11.19968977 -0.06160701 0 0 Z " fill="#8DA430" transform="translate(101.4375,267.9375)"/>
<path d="M0 0 C0.66 0 1.32 0 2 0 C2.10861833 2.70942393 2.18758577 5.414439 2.25 8.125 C2.30027344 9.26582031 2.30027344 9.26582031 2.3515625 10.4296875 C2.44646798 15.93420522 1.47743672 18.71481224 -2 23 C-8.94490614 22.82316211 -13.42262143 21.11844576 -19 17 C-16 16 -16 16 -14.16796875 16.7421875 C-13.51441406 17.11601562 -12.86085938 17.48984375 -12.1875 17.875 C-8.78954372 19.69645531 -5.87705319 20.61229468 -2 21 C-1.11360611 18.34081834 -0.82010975 16.51935359 -0.68359375 13.76953125 C-0.64169922 12.96708984 -0.59980469 12.16464844 -0.55664062 11.33789062 C-0.51732422 10.50451172 -0.47800781 9.67113281 -0.4375 8.8125 C-0.39431641 7.96751953 -0.35113281 7.12253906 -0.30664062 6.25195312 C-0.20068482 4.16815567 -0.0998498 2.08409897 0 0 Z " fill="#253508" transform="translate(133,210)"/>
<path d="M0 0 C3.89569135 -0.08732726 7.79112982 -0.14050185 11.6875 -0.1875 C12.79029297 -0.21263672 13.89308594 -0.23777344 15.02929688 -0.26367188 C16.09599609 -0.27333984 17.16269531 -0.28300781 18.26171875 -0.29296875 C19.24100342 -0.3086792 20.22028809 -0.32438965 21.22924805 -0.34057617 C24.51713394 0.06356523 26.39533056 0.96965854 29 3 C29 3.99 29 4.98 29 6 C27.783125 5.525625 26.56625 5.05125 25.3125 4.5625 C20.24562753 2.85753344 15.35609372 2.48880257 10.04296875 2.18359375 C6.64447484 1.97854983 3.35745391 1.54656226 0 1 C0 0.67 0 0.34 0 0 Z " fill="#7F9724" transform="translate(100,241)"/>
<path d="M0 0 C0.33 0 0.66 0 1 0 C0.91621094 1.26714844 0.83242187 2.53429687 0.74609375 3.83984375 C0.64282779 5.53903815 0.53998591 7.23825837 0.4375 8.9375 C0.38142578 9.76830078 0.32535156 10.59910156 0.26757812 11.45507812 C-0.06275821 17.11484061 0.23452067 22.38081467 1 28 C0.34 28.33 -0.32 28.66 -1 29 C-2.15547816 24.74319464 -2.45772863 20.57513479 -2.75 16.1875 C-2.81832031 15.40568359 -2.88664063 14.62386719 -2.95703125 13.81835938 C-3.31388515 8.3420246 -2.52760859 4.87932689 0 0 Z " fill="#758C22" transform="translate(141,238)"/>
<path d="M0 0 C0 0.99 0 1.98 0 3 C-4.37862206 6.77467419 -10.37777312 7.68634718 -16 8 C-19.25018543 7.46260845 -21.05062447 6.63854196 -24 5 C-24.7109375 2.8828125 -24.7109375 2.8828125 -25 1 C-24.01 1.33 -23.02 1.66 -22 2 C-22 2.66 -22 3.32 -22 4 C-19.62429457 4.0816082 -17.25144159 4.14077222 -14.875 4.1875 C-13.87726563 4.22520508 -13.87726563 4.22520508 -12.859375 4.26367188 C-8.1276675 4.33325581 -5.03644221 3.43536103 -1 1 C-0.67 0.67 -0.34 0.34 0 0 Z " fill="#6A8217" transform="translate(183,267)"/>
<path d="M0 0 C0.99 0.66 1.98 1.32 3 2 C2.26394531 2.44730469 1.52789062 2.89460937 0.76953125 3.35546875 C-4.3946647 6.55495079 -8.84837353 9.58052666 -13 14 C-13.66 14 -14.32 14 -15 14 C-13.68821712 8.58889563 -9.59992044 4.87598629 -5 2 C-2.23828125 1.80078125 -2.23828125 1.80078125 0 2 C0 1.34 0 0.68 0 0 Z " fill="#687D19" transform="translate(158,223)"/>
<path d="M0 0 C0 0.99 0 1.98 0 3 C-1.27875 3.0825 -2.5575 3.165 -3.875 3.25 C-6.06128675 3.48755936 -6.06128675 3.48755936 -8 4 C-9.38319587 5.68015159 -9.38319587 5.68015159 -10 8 C-11.28796166 10.02951535 -12.61558 12.03501678 -14 14 C-14.33 14 -14.66 14 -15 14 C-15 12.02 -15 10.04 -15 8 C-14.34 8 -13.68 8 -13 8 C-12.67 7.01 -12.34 6.02 -12 5 C-11.34 5 -10.68 5 -10 5 C-9.67 4.01 -9.34 3.02 -9 2 C-5.67908998 0.29466783 -3.81507216 0 0 0 Z " fill="#89A628" transform="translate(61,193)"/>
<path d="M0 0 C0.72469482 0.1539624 1.44938965 0.3079248 2.19604492 0.46655273 C4.76043358 0.95442293 7.26664846 1.28386921 9.86328125 1.53515625 C10.74951172 1.62216797 11.63574219 1.70917969 12.54882812 1.79882812 C13.46083984 1.88583984 14.37285156 1.97285156 15.3125 2.0625 C16.24384766 2.15337891 17.17519531 2.24425781 18.13476562 2.33789062 C20.4229686 2.56084374 22.71137062 2.78147486 25 3 C24.67 3.66 24.34 4.32 24 5 C21.79173622 5.02722517 19.58337362 5.04649729 17.375 5.0625 C16.14523438 5.07410156 14.91546875 5.08570313 13.6484375 5.09765625 C10.32276209 5.00863924 7.25952412 4.63686087 4 4 C4 3.34 4 2.68 4 2 C2.68 1.67 1.36 1.34 0 1 C0 0.67 0 0.34 0 0 Z " fill="#5C7817" transform="translate(154,280)"/>
<path d="M0 0 C0 0.66 0 1.32 0 2 C0.66 2.33 1.32 2.66 2 3 C-4.75 2.125 -4.75 2.125 -7 1 C-9.71262116 0.7677354 -12.40773126 0.58063765 -15.125 0.4375 C-15.87910156 0.39431641 -16.63320312 0.35113281 -17.41015625 0.30664062 C-19.27321888 0.2005168 -21.13658524 0.09974999 -23 0 C-22 -2 -22 -2 -20.26953125 -2.64453125 C-13.52365516 -3.70111425 -6.39891881 -2.13297294 0 0 Z " fill="#5B6A11" transform="translate(185,224)"/>
<path d="M0 0 C0.66 0.33 1.32 0.66 2 1 C1.71915428 5.02545534 1.21634296 6.74482626 -1.4375 9.875 C-4 12 -4 12 -6 12 C-6 12.66 -6 13.32 -6 14 C-7.32 14 -8.64 14 -10 14 C-10 14.66 -10 15.32 -10 16 C-10.66 15.67 -11.32 15.34 -12 15 C-11 12 -11 12 -8.125 10.375 C-5 9 -5 9 -2 8 C-1.19787372 6.12612784 -1.19787372 6.12612784 -0.8125 3.9375 C-0.57466797 2.83728516 -0.57466797 2.83728516 -0.33203125 1.71484375 C-0.22246094 1.14894531 -0.11289063 0.58304687 0 0 Z " fill="#6B8422" transform="translate(132,268)"/>
<path d="M0 0 C0.33 0 0.66 0 1 0 C3.66514806 19.00455581 3.66514806 19.00455581 1 27 C-0.19799449 22.85340627 0.1103808 19.00630953 0.4375 14.75 C0.51581055 13.63238281 0.51581055 13.63238281 0.59570312 12.4921875 C0.7248217 10.66105139 0.86165114 8.83046187 1 7 C0.34 7 -0.32 7 -1 7 C-1.04254356 5.00045254 -1.04080783 2.99958364 -1 1 C-0.67 0.67 -0.34 0.34 0 0 Z " fill="#5C711B" transform="translate(199,239)"/>
<path d="M0 0 C7.34164374 0.59288188 14.67386859 1.238212 22 2 C22 2.33 22 2.66 22 3 C16.06 3.33 10.12 3.66 4 4 C4 3.34 4 2.68 4 2 C2.68 2 1.36 2 0 2 C0 1.34 0 0.68 0 0 Z " fill="#778E2B" transform="translate(52,280)"/>
<path d="M0 0 C2.60704898 2.60704898 2.23905333 4.47338241 2.265625 8.02734375 C2 10 2 10 0 13 C-0.99 12.67 -1.98 12.34 -3 12 C-2.34 11.67 -1.68 11.34 -1 11 C-1.01160156 10.37351562 -1.02320312 9.74703125 -1.03515625 9.1015625 C-1.04417969 8.28429687 -1.05320312 7.46703125 -1.0625 6.625 C-1.07410156 5.81289063 -1.08570312 5.00078125 -1.09765625 4.1640625 C-1 2 -1 2 0 0 Z " fill="#6A7C23" transform="translate(120,255)"/>
<path d="M0 0 C0 0.66 0 1.32 0 2 C-1.32 2 -2.64 2 -4 2 C-4 2.66 -4 3.32 -4 4 C-4.804375 4.268125 -5.60875 4.53625 -6.4375 4.8125 C-7.283125 5.204375 -8.12875 5.59625 -9 6 C-9.33 6.99 -9.66 7.98 -10 9 C-9.25 3.25 -9.25 3.25 -7 1 C-4.49940039 0.19335496 -2.66053211 0 0 0 Z " fill="#5B7A1A" transform="translate(164,234)"/>
<path d="M0 0 C0.33 0 0.66 0 1 0 C2.33333333 4 3.66666667 8 5 12 C1.83884224 10.63016497 1.0072908 10.0109362 -1 7 C-0.625 3.3125 -0.625 3.3125 0 0 Z " fill="#829423" transform="translate(46,267)"/>
<path d="M0 0 C2.60208598 2.60208598 3.24088781 4.54439038 3.3125 8.125 C3 12 3 12 1 14 C0.04738513 9.23692563 -0.08333357 4.8333472 0 0 Z " fill="#768F24" transform="translate(130,200)"/>
<path d="M0 0 C2.64 0.33 5.28 0.66 8 1 C8.12375 1.639375 8.2475 2.27875 8.375 2.9375 C8.58125 3.618125 8.7875 4.29875 9 5 C9.66 5.33 10.32 5.66 11 6 C7.61121488 6 6.60242783 5.35638802 3.8125 3.5625 C2.73935547 2.88380859 2.73935547 2.88380859 1.64453125 2.19140625 C1.10183594 1.79824219 0.55914062 1.40507812 0 1 C0 0.67 0 0.34 0 0 Z " fill="#5F7119" transform="translate(175,234)"/>
<path d="M0 0 C4.455 0.99 4.455 0.99 9 2 C9 2.66 9 3.32 9 4 C9.66 4.33 10.32 4.66 11 5 C6.6822542 4.49202991 2.96697886 3.80317221 -1 2 C-0.67 1.34 -0.34 0.68 0 0 Z " fill="#647516" transform="translate(176,222)"/>
<path d="M0 0 C0.33 0 0.66 0 1 0 C1 2.64 1 5.28 1 8 C0.34 8 -0.32 8 -1 8 C-1.33 9.32 -1.66 10.64 -2 12 C-3.6442351 7.06729471 -2.18615592 4.45975807 0 0 Z " fill="#708318" transform="translate(141,238)"/>
<path d="M0 0 C4.7517398 0.43197635 6.92000054 1.32769295 10 5 C5.75354935 5 3.61475228 3.18249194 0 1 C0 0.67 0 0.34 0 0 Z " fill="#6F961D" transform="translate(114,226)"/>
<path d="M0 0 C0 0.99 0 1.98 0 3 C-3.375 3.625 -3.375 3.625 -7 4 C-7.66 3.34 -8.32 2.68 -9 2 C-5.62902617 0.50178941 -3.79557881 0 0 0 Z " fill="#69A31C" transform="translate(61,193)"/>
<path d="M0 0 C0.66 0 1.32 0 2 0 C2.33 0.99 2.66 1.98 3 3 C-0.465 4.485 -0.465 4.485 -4 6 C-3.67 4.68 -3.34 3.36 -3 2 C-2.01 2 -1.02 2 0 2 C0 1.34 0 0.68 0 0 Z " fill="#6E8923" transform="translate(69,221)"/>
<path d="M0 0 C-5.625 3.875 -5.625 3.875 -9 5 C-8.8125 3.125 -8.8125 3.125 -8 1 C-4.70594381 -0.82039948 -3.63772813 -1.21257604 0 0 Z " fill="#6F8522" transform="translate(88,213)"/>
<path d="M0 0 C0.66 0.33 1.32 0.66 2 1 C1.6875 3.875 1.6875 3.875 1 7 C0.01 7.66 -0.98 8.32 -2 9 C-1.34 6.03 -0.68 3.06 0 0 Z " fill="#567817" transform="translate(132,268)"/>
<path d="M0 0 C0.33 0 0.66 0 1 0 C1.33 2.97 1.66 5.94 2 9 C1.67 8.34 1.34 7.68 1 7 C0.34 7 -0.32 7 -1 7 C-1.04254356 5.00045254 -1.04080783 2.99958364 -1 1 C-0.67 0.67 -0.34 0.34 0 0 Z " fill="#6B7A1F" transform="translate(199,239)"/>
<path d="M0 0 C4.31392226 0.4793247 6.16569547 1.7457985 9 5 C4.98525763 5 3.18024863 3.33218233 0 1 C0 0.67 0 0.34 0 0 Z " fill="#7A8E1E" transform="translate(185,227)"/>
<path d="M0 0 C5.53846154 0.49230769 5.53846154 0.49230769 7.875 3.0625 C8.431875 4.0215625 8.431875 4.0215625 9 5 C8.01 5 7.02 5 6 5 C6 4.34 6 3.68 6 3 C5.38125 2.87625 4.7625 2.7525 4.125 2.625 C2 2 2 2 0 0 Z " fill="#839E24" transform="translate(120,195)"/>
<path d="" fill="#000000" transform="translate(0,0)"/>
<path d="" fill="#000000" transform="translate(0,0)"/>
<path d="" fill="#000000" transform="translate(0,0)"/>
<path d="" fill="#000000" transform="translate(0,0)"/>
<path d="" fill="#000000" transform="translate(0,0)"/>
<path d="" fill="#000000" transform="translate(0,0)"/>
</svg>
